:SAMPLES-PER-SECOND 30
:FULLY-SPECIFIED
:DEGREES
52
root  35.07186109 36.53404356 -14.73053159 10.35519695 2.449537992 3.08640337
lowerback  -9.255869865 1.035380125 1.679600239
upperback  -3.791320086 0.9239640236 -2.843280077
thorax  1.331279993 0.2732709944 -3.801179886
lowerneck  -16.52890015 0.8165040016 1.32554996
upperneck  13.17020035 -0.1007170156 4.524779797
head  6.743150234 0.3709840178 1.232349992
lclavicle  0 -4.497500157e-015 -2.743230041e-014
lhumerus  -42.4681015 25.65299988 71.65180206
lradius  -0.06967258453 -6.507048965e-006 27.49459839
lwrist  4.824992743e-007 -3.790274832e-007 -30.30360031
lhand  -3.519951718e-031 -36.78160095 -10.64990044
lfingers  90 7.125020027 -90
lthumb  94.7552948 -25.49032021 100.9401245
rclavicle  0 -4.497500157e-015 -2.743230041e-014
rhumerus  -6.029439449 -1.370310068 -72.83270264
rradius  -5.16745672e-007 2.214343908e-008 85.37729645
rwrist  1.380293725e-006 2.528095422e-007 -170.6959991
rhand  -3.000363295e-031 -0.8801969886 -7.945320129
rfingers  -90 -7.125020027 -90
rthumb  -86.36234283 -7.837220192 -65.0037384
rfemur  -13.27937317 14.47888851 13.58451748
rtibia  -1.099731565 1.068184137 21.14237595
rfoot  -0.7285797596 -17.99502563 -40.51820374
rtoes  4.104057789 19.6043129 -102.0784683
lfemur  -11.05047226 -17.43984032 -18.41320419
ltibia  1.910887599 1.528548956 15.78802109
lfoot  0.4388794303 -28.8549366 32.72525406
ltoes  -8.672623634 -18.0915947 -116.15979
53
root  35.0720353 36.53346385 -14.73020719 10.36419296 2.566017389 3.068866014
lowerback  -9.29281044 1.053490043 1.616989374
upperback  -3.806070089 0.9499890208 -2.874269962
thorax  1.337849975 0.2848390043 -3.795160055
lowerneck  -16.47100067 0.7502220273 1.336599946
upperneck  13.10000038 -0.1920999438 4.542429924
head  6.712490082 0.3266029954 1.225659966
lclavicle  0 -4.497500157e-015 -2.743230041e-014
lhumerus  -42.46039963 25.53000069 71.72319794
lradius  -0.07030559331 -6.507048965e-006 27.56229973
lwrist  4.824992743e-007 -3.790274832e-007 -29.99090004
lhand  -3.517268817e-031 -36.80120087 -10.67949963
lfingers  90 7.125020027 -90
lthumb  94.77070618 -25.51869392 100.963768
rclavicle  0 -4.497500157e-015 -2.743230041e-014
rhumerus  -4.538090229 -0.8654294014 -72.30020142
rradius  -5.16745672e-007 2.214343908e-008 86.02210236
rwrist  1.380293725e-006 2.528095422e-007 -170.6609955
rhand  -2.99659963e-031 -0.973976016 -8.001350403
rfingers  -90 -7.125020027 -90
rthumb  -86.40371704 -7.780956745 -65.09815216
rfemur  -13.25272655 14.43186665 13.60997009
rtibia  -1.088979602 1.090524912 21.1077919
rfoot  -0.7333196998 -17.96148872 -40.58675385
rtoes  4.123615742 19.60341835 -102.1368027
lfemur  -11.09820175 -17.43744087 -18.36110115
ltibia  1.888557196 1.577718377 15.83375359
lfoot  0.4465168118 -28.97709846 32.66360855
ltoes  -8.663450241 -18.09587479 -116.1302567
54
root  35.0723627 36.52958006 -14.7299699 10.38651085 2.697731972 3.077211857
lowerback  -9.269319534 1.083969831 1.624459386
upperback  -3.842350006 0.986109972 -2.912389994
thorax  1.290869951 0.2996880114 -3.835690022
lowerneck  -16.40609932 0.676797986 1.325870037
upperneck  13.06270027 -0.2934620082 4.57998991
head  6.691520214 0.2781670094 1.228139997
lclavicle  0 -4.497500157e-015 -2.743230041e-014
lhumerus  -42.52819824 25.42539978 71.71330261
lradius  -0.07093459368 -6.507048965e-006 27.61440086
lwrist  4.824992743e-007 -3.790274832e-007 -29.89209747
lhand  -3.519678794e-031 -36.79790115 -10.65089989
lfingers  90 7.125020027 -90
lthumb  94.76314545 -25.49078369 100.9576492
rclavicle  0 -4.497500157e-015 -2.743230041e-014
rhumerus  -3.056190252 -0.5646618605 -71.81529999
rradius  -5.16745672e-007 2.214343908e-008 86.55000305
rwrist  1.380293725e-006 2.528095422e-007 -170.8099976
rhand  -2.996638483e-031 -1.12548995 -8.000379562
rfingers  -90 -7.125020027 -90
rthumb  -86.43148804 -7.772974491 -65.24559021
rfemur  -13.26817036 14.39422226 13.62345219
rtibia  -1.098485112 1.111519933 21.14174271
rfoot  -0.7757339478 -17.93905067 -40.68521118
rtoes  4.099619865 19.6024971 -102.0652313
lfemur  -11.0802927 -17.52325821 -18.35957909
ltibia  1.937932968 1.626400471 15.7581892
lfoot  0.4702532291 -29.0292263 32.68761444
ltoes  -8.63785553 -18.10778809 -116.0478745
55
root  35.0726871 36.52897632 -14.72968304 10.3797121 2.828758001 3.079022646
lowerback  -9.221869469 1.140009999 1.653609753
upperback  -3.910170078 1.050860047 -2.978250027
thorax  1.201249957 0.3258549869 -3.914890051
lowerneck  -16.3491993 0.5796049833 1.295920014
upperneck  13.04609966 -0.4293019772 4.644899845
head  6.679450035 0.2145410329 1.239220023
lclavicle  0 -4.497500157e-015 -2.743230041e-014
lhumerus  -42.58890152 25.30870056 71.65979767
lradius  -0.07155988365 -6.507048965e-006 27.61260033
lwrist  4.824992743e-007 -3.790274832e-007 -29.9129982
lhand  -3.521298449e-031 -36.77629852 -10.63440037
lfingers  90 7.125020027 -90
lthumb  94.74954987 -25.47533226 100.9330368
rclavicle  0 -4.497500157e-015 -2.743230041e-014
rhumerus  -1.67742908 -0.2424912006 -71.23329926
rradius  -5.16745672e-007 2.214343908e-008 87.02189636
rwrist  1.380293725e-006 2.528095422e-007 -171.2559967
rhand  -3.001110987e-031 -0.628271997 -7.93460989
rfingers  -90 -7.125020027 -90
rthumb  -86.31026459 -7.861626148 -64.75788116
rfemur  -13.24684143 14.34739876 13.65053082
rtibia  -1.103101611 1.149332404 21.16584396
rfoot  -0.7924684286 -17.89135551 -40.72740173
rtoes  4.076646805 19.60139847 -101.996727
lfemur  -11.0438509 -17.58694267 -18.35987854
ltibia  1.970215917 1.655816197 15.70546913
lfoot  0.4778107405 -29.0623436 32.67782974
ltoes  -8.644385338 -18.10475349 -116.0688934
